HIERARCHY
ROOT Hips
{
	OFFSET -3.958830 18.904000 13.208200
	CHANNELS 6 Xposition Yposition Zposition Zrotation Yrotation Xrotation 
	JOINT LHipJoint
	{
		OFFSET 0.000000 0.000000 0.000000
		CHANNELS 3 Zrotation Yrotation Xrotation
		JOINT LeftUpLeg
		{
			OFFSET 1.800000 -1.400000 0.085000
			CHANNELS 3 Zrotation Yrotation Xrotation
			JOINT LeftLeg
			{
				OFFSET 2.215000 -6.000000 0.000000
				CHANNELS 3 Zrotation Yrotation Xrotation
				JOINT LeftFoot
				{
					OFFSET 2.500000 -6.900000 0.000000
					CHANNELS 3 Zrotation Yrotation Xrotation
					JOINT LeftToeBase
					{
						OFFSET 0.200000 -0.500000 1.950000
						CHANNELS 3 Zrotation Yrotation Xrotation
						End Site
						{
							OFFSET 0.000000 0.000000 0.000000
						}
					}
				}
			}
		}
	}
	JOINT RHipJoint
	{
		OFFSET 0.000000 0.000000 0.000000
		CHANNELS 3 Zrotation Yrotation Xrotation
		JOINT RightUpLeg
		{
			OFFSET -1.800000 -1.400000 0.085000
			CHANNELS 3 Zrotation Yrotation Xrotation
			JOINT RightLeg
			{
				OFFSET -2.215000 -6.000000 0.000000
				CHANNELS 3 Zrotation Yrotation Xrotation
				JOINT RightFoot
				{
					OFFSET -2.500000 -6.900000 0.000000
					CHANNELS 3 Zrotation Yrotation Xrotation
					JOINT RightToeBase
					{
						OFFSET -0.200000 -0.500000 1.950000
						CHANNELS 3 Zrotation Yrotation Xrotation
						End Site
						{
							OFFSET 0.000000 0.000000 0.000000
						}
					}
				}
			}
		}
	}
	JOINT LowerBack
	{
		OFFSET 0.000000 0.000000 0.000000
		CHANNELS 3 Zrotation Yrotation Xrotation
		JOINT Spine
		{
			OFFSET -0.087000 1.940000 -0.288900
			CHANNELS 3 Zrotation Yrotation Xrotation
			JOINT Spine1
			{
				OFFSET 0.000000 1.950000 0.060000
				CHANNELS 3 Zrotation Yrotation Xrotation
				JOINT Neck
				{
					OFFSET 0.000000 0.000000 0.000000
					CHANNELS 3 Zrotation Yrotation Xrotation
					JOINT Neck1
					{
						OFFSET 0.000000 1.600000 0.340000
						CHANNELS 3 Zrotation Yrotation Xrotation
						JOINT Head
						{
							OFFSET 0.000000 1.667000 -0.240000
							CHANNELS 3 Zrotation Yrotation Xrotation
							End Site
							{
								OFFSET 0.000000 0.000000 0.000000
							}
						}
					}
				}
				JOINT LeftShoulder
				{
					OFFSET 0.000000 0.000000 0.000000
					CHANNELS 3 Zrotation Yrotation Xrotation
					JOINT LeftArm
					{
						OFFSET 2.700000 1.550000 -0.730000
						CHANNELS 3 Zrotation Yrotation Xrotation
						JOINT LeftForeArm
						{
							OFFSET 5.450000 0.000000 0.000000
							CHANNELS 3 Zrotation Yrotation Xrotation
							JOINT LeftHand
							{
								OFFSET 3.450000 0.000000 0.000000
								CHANNELS 3 Zrotation Yrotation Xrotation
								JOINT LeftHandIndex1
								{
									OFFSET 0.750000 0.000000 0.000000
									CHANNELS 3 Zrotation Yrotation Xrotation
									End Site
									{
										OFFSET 0.000000 0.000000 0.000000
									}
								}
							}
						}
					}
				}
				JOINT RightShoulder
				{
					OFFSET 0.000000 0.000000 0.000000
					CHANNELS 3 Zrotation Yrotation Xrotation
					JOINT RightArm
					{
						OFFSET -2.700000 1.550000 -0.730000
						CHANNELS 3 Zrotation Yrotation Xrotation
						JOINT RightForeArm
						{
							OFFSET -5.450000 0.000000 0.000000
							CHANNELS 3 Zrotation Yrotation Xrotation
							JOINT RightHand
							{
								OFFSET -3.450000 0.000000 0.000000
								CHANNELS 3 Zrotation Yrotation Xrotation
								JOINT RightHandIndex1
								{
									OFFSET -0.750000 0.000000 0.000000
									CHANNELS 3 Zrotation Yrotation Xrotation
									End Site
									{
										OFFSET 0.000000 0.000000 0.000000
									}
								}
							}
						}
					}
				}
			}
		}
	}
}
MOTION
Frames: 10
Frame Time: 0.016667
-0.597050 17.583250 -2.302070 13.319470 -8.517877 -16.811137 -16.151214 11.450200 6.759712 -0.181475 -10.164819 -67.161971 -5.906710 16.744629 55.836923 0.799247 10.751422 0.660589 0.394130 0.308080 0.234590 17.718214 -9.205631 1.237699 -17.548270 1.586016 -0.330359 7.570206 -6.314973 14.719531 -0.468751 -4.305931 2.922361 0.109620 -0.072410 0.060380 -1.472791 -3.800054 -8.679720 -16.361611 14.849537 37.025638 10.563233 9.917374 13.404007 1.538766 -4.059962 -12.900398 -6.812522 6.609277 45.220292 -2.002280 0.643330 -19.445930 -9.384146 -10.538809 7.867725 -49.032482 11.422739 -15.379336 -66.609730 -24.765417 5.810628 -3.355132 3.217212 0.533350 -0.167970 0.170700 0.056670 6.630276 25.355084 7.324788 26.691053 29.874955 -7.641409 -130.232983 38.175089 -97.639955 2.008085 -1.273176 -0.028700 0.261870 0.030470 -0.161640 
-0.582290 17.757690 -2.286690 13.110030 -8.960776 -17.393447 -16.138921 11.746658 6.461786 0.394257 -9.323279 -62.295304 -6.960591 18.382407 57.796735 0.983488 11.355437 0.483448 0.436600 0.353210 0.281010 17.689475 -9.279437 1.243445 -16.789165 1.140673 -0.267966 6.429827 -6.005498 14.455438 -0.484157 -4.170506 2.970802 0.122710 -0.111620 0.067760 -1.421403 -4.016335 -8.552686 -17.128259 15.048096 36.617544 10.803897 9.976783 14.277902 1.538466 -3.868989 -12.692350 -6.659348 6.815828 46.118215 -2.415990 0.788540 -20.124250 -8.195243 -9.495616 7.651969 -47.011807 11.527767 -14.914119 -71.435583 -24.286858 6.406718 -3.314641 3.257203 0.542750 -0.188880 0.202990 0.058530 5.328980 24.004762 7.203638 26.850889 29.694700 -6.579669 -133.166115 36.733529 -100.452801 1.998651 -1.341847 -0.003420 0.250270 0.000430 -0.166580 
-0.554650 17.927870 -2.272080 12.322510 -10.016296 -18.180464 -16.082043 12.145801 6.055540 1.030131 -7.865927 -56.348216 -7.820291 19.383479 58.147100 1.069399 11.585604 0.409652 0.470840 0.391380 0.312330 17.675301 -9.465224 1.283606 -15.405485 0.762411 -0.607509 5.102459 -5.698198 15.139217 -0.496564 -4.025827 3.019922 0.134220 -0.149100 0.071050 -1.437390 -4.131443 -8.402955 -16.585064 14.683044 36.910201 10.205295 10.010881 14.980689 1.689757 -4.080908 -12.598713 -7.326470 7.410194 47.116017 -2.768490 0.909980 -21.063500 -7.606490 -8.614163 7.487022 -44.928382 12.044600 -14.814138 -75.795794 -23.948601 6.793800 -3.271543 3.283308 0.563850 -0.215660 0.235290 0.059370 4.316929 23.070566 7.144500 26.973445 29.536570 -5.656131 -135.681447 35.714396 -103.221051 1.989344 -1.382428 0.014230 0.245690 -0.018480 -0.171550 
-0.513600 18.081830 -2.260960 11.006832 -11.450963 -18.955938 -15.988692 12.592739 5.589170 1.837807 -6.059891 -50.001878 -8.379818 19.740250 57.278895 1.070243 11.505519 0.419856 0.502650 0.423050 0.344870 17.680141 -9.732174 1.352602 -13.497103 0.580305 -1.470417 3.710666 -5.402339 17.038372 -0.504903 -3.907519 3.053380 0.145300 -0.187730 0.076230 -1.514941 -4.128432 -8.243751 -14.688108 13.833207 37.826147 8.927502 10.030541 15.430140 1.980959 -4.524098 -12.468646 -8.518820 8.152956 47.870050 -3.503560 0.977200 -22.104430 -7.637011 -7.718340 7.178055 -42.511068 12.562545 -14.765406 -79.610822 -23.509763 6.915653 -3.238714 3.301149 0.586870 -0.241320 0.265470 0.056020 3.614022 22.238447 7.059330 27.109641 29.324047 -4.694321 -138.318898 34.818639 -106.393903 1.977621 -1.420283 0.028990 0.240800 -0.032700 -0.179840 
-0.456020 18.212600 -2.252190 8.734769 -13.142551 -19.543670 -15.844239 13.053819 5.074897 3.032319 -4.012357 -43.551495 -8.211386 19.225106 55.465715 0.981412 11.102825 0.524619 0.524960 0.440750 0.365990 17.721836 -10.059740 1.503897 -10.705403 0.780063 -2.869159 2.362975 -5.096456 20.462259 -0.523177 -3.868582 3.061115 0.150610 -0.219280 0.070080 -1.701759 -3.969278 -8.111777 -10.924680 12.048193 39.564228 6.934109 9.703309 15.427001 2.354901 -5.414833 -12.532659 -10.730105 9.179514 48.614767 -3.925210 0.716370 -23.138900 -8.070420 -7.058165 6.954280 -40.791740 13.432469 -15.137055 -82.392551 -22.931911 6.518570 -3.202787 3.295388 0.617590 -0.273050 0.289410 0.053680 3.189593 21.748280 6.992253 27.127747 28.918199 -4.049454 -140.496948 34.425339 -109.474865 1.969249 -1.436878 0.033590 0.249410 -0.039640 -0.186950 
-0.382460 18.311740 -2.242680 5.220854 -14.625549 -19.797332 -15.622064 13.435697 4.503857 4.804904 -1.905989 -37.232999 -7.107255 17.849839 53.008342 0.837878 10.409029 0.716949 0.553320 0.466190 0.387850 17.833514 -10.402813 1.829739 -7.141884 1.807379 -4.709902 1.883851 -5.016455 25.770584 -0.603121 -4.100216 2.961281 0.151380 -0.260850 0.070080 -2.105772 -3.522433 -8.035405 -4.561612 9.005117 42.237834 3.835467 8.907332 14.986238 2.943721 -6.373057 -12.796587 -13.190342 10.145505 49.284475 -3.994670 0.154980 -24.199680 -8.805979 -6.815680 6.737735 -39.195061 14.173088 -15.647602 -84.369998 -22.079773 5.640258 -3.157284 3.298525 0.643970 -0.316650 0.323890 0.054840 2.687980 21.273966 7.033986 27.149272 27.905886 -3.853330 -142.647809 33.889095 -112.566653 1.973966 -1.462780 0.054740 0.246170 -0.054370 -0.184380 
-0.309870 18.378920 -2.237550 1.393431 -15.202918 -19.317938 -15.403716 13.624742 3.988435 6.782478 -0.410671 -32.110735 -6.062236 16.385178 50.187345 0.666781 9.680183 0.930401 0.560040 0.470290 0.389290 17.982683 -10.552569 2.288697 -3.847448 4.204442 -7.699577 2.895861 -5.534909 33.210195 -0.750315 -4.784756 2.704356 0.150300 -0.280320 0.062860 -2.605658 -3.016220 -8.024965 2.068881 5.507032 44.223787 0.986732 7.511208 14.240047 3.399510 -7.005557 -12.996666 -14.891585 10.908738 49.613738 -3.944190 -0.302860 -24.514280 -9.453281 -6.835315 6.568755 -37.590680 14.530767 -15.742563 -85.772402 -21.212440 4.863692 -3.141187 3.296531 0.661000 -0.338770 0.333160 0.049270 2.473854 20.425990 7.013522 27.383082 26.490709 -3.846710 -144.646976 33.719714 -115.886078 1.971041 -1.488896 0.058530 0.246800 -0.052600 -0.185430 
-0.245360 18.395740 -2.235120 -2.104295 -14.918728 -17.986346 -15.242410 13.571585 3.518296 8.595553 0.526918 -28.435018 -5.324056 15.197940 47.398362 0.512304 9.056446 1.131915 0.558950 0.461120 0.389210 18.142664 -10.406728 2.905040 -1.881224 8.023514 -12.236603 6.163461 -7.402831 41.798505 -1.018009 -6.028802 2.260741 0.150090 -0.276040 0.067330 -3.097302 -2.529398 -8.107212 7.836046 2.339652 44.694304 -1.157312 5.896017 13.364650 3.626176 -7.164429 -12.816793 -15.236008 11.132899 49.331887 -4.239510 -0.543240 -24.329260 -9.705374 -6.475572 6.202987 -36.170307 14.282209 -15.284249 -86.577760 -19.711299 3.798806 -3.154595 3.296470 0.665010 -0.335550 0.330360 0.049940 2.364350 18.778621 6.756779 28.333650 25.283807 -3.519227 -146.566004 34.084186 -119.666617 1.962853 -1.524166 0.053940 0.251190 -0.046830 -0.187410 
-0.187490 18.380990 -2.235570 -5.088976 -13.803475 -16.358590 -15.125642 13.372029 3.021565 9.838224 1.018602 -25.294432 -4.688148 13.972152 44.273713 0.362195 8.374056 1.370192 0.552900 0.451620 0.385330 18.305731 -10.033273 3.678628 -2.190541 12.484904 -17.896114 12.071699 -11.422887 49.771488 -1.424773 -7.795033 1.674723 0.152320 -0.263900 0.067310 -3.561459 -2.142418 -8.251578 12.754558 -0.553017 44.312696 -2.976976 4.109558 12.462565 3.700486 -7.206215 -12.478324 -15.229012 11.110985 48.672730 -4.573030 -0.852440 -23.762150 -9.954591 -6.154237 5.795935 -34.686589 13.599867 -14.523632 -86.633641 -18.197221 2.823529 -3.179045 3.298649 0.651590 -0.323010 0.317690 0.052280 2.565476 17.084680 6.471467 29.595799 24.053396 -3.279125 -148.387514 34.684527 -123.674708 1.961738 -1.565234 0.048480 0.255400 -0.043990 -0.184940 
-0.130590 18.332230 -2.232360 -7.992179 -12.130886 -14.594345 -15.027647 13.079360 2.506027 11.167490 1.351683 -22.269431 -4.409203 12.743348 40.379178 0.197807 7.621359 1.653148 0.549030 0.439510 0.374150 18.480308 -9.544673 4.531492 -4.672685 16.694002 -24.472230 20.399680 -17.640278 55.486044 -1.952822 -9.850797 1.056517 0.159560 -0.236720 0.066170 -4.015265 -1.816983 -8.411175 17.554769 -3.422992 43.207096 -4.601689 2.205245 11.617384 3.648630 -7.288323 -12.060328 -15.214419 11.081788 47.596349 -4.520310 -1.155930 -22.967440 -10.205234 -5.822873 5.442186 -33.421520 12.861045 -13.610720 -86.344538 -16.750932 1.973973 -3.203893 3.304185 0.639630 -0.303940 0.296060 0.068030 3.012415 15.398765 6.142491 30.779470 22.777309 -3.220778 -149.828490 35.511443 -127.126956 1.954641 -1.611377 0.032920 0.265850 -0.044370 -0.181870 
